<mxfile host="Electron" modified="2023-09-06T12:50:33.817Z" agent="Mozilla/5.0 (Windows NT 10.0; Win64; x64) AppleWebKit/537.36 (KHTML, like Gecko) draw.io/21.6.5 Chrome/114.0.5735.243 Electron/25.3.1 Safari/537.36" etag="KAXRZvmUNQm1f04y_7tz" version="21.6.5" type="device">
  <diagram name="Page-1" id="PNVQmQqSfKHXlzU1RIl6">
    <mxGraphModel dx="675" dy="394" grid="1" gridSize="10" guides="1" tooltips="1" connect="1" arrows="1" fold="1" page="1" pageScale="1" pageWidth="690" pageHeight="980" math="0" shadow="0">
      <root>
        <mxCell id="0" />
        <mxCell id="1" parent="0" />
        <mxCell id="dMctOLn0nf9WXn-BNeQt-15" value="" style="rounded=0;whiteSpace=wrap;html=1;fillColor=#f5f5f5;fontColor=#333333;strokeColor=#666666;" vertex="1" parent="1">
          <mxGeometry x="255" y="110" width="145" height="60" as="geometry" />
        </mxCell>
        <mxCell id="dMctOLn0nf9WXn-BNeQt-3" value="" style="verticalLabelPosition=bottom;verticalAlign=top;html=1;shape=mxgraph.basic.4_point_star_2;dx=0.92;rotation=45;fillColor=#e51400;strokeColor=#B20000;fontColor=#ffffff;aspect=fixed;" vertex="1" parent="1">
          <mxGeometry x="334" y="111.5" width="60" height="60" as="geometry" />
        </mxCell>
        <mxCell id="dMctOLn0nf9WXn-BNeQt-14" value="caret" style="text;html=1;strokeColor=none;fillColor=none;align=center;verticalAlign=middle;whiteSpace=wrap;rounded=0;fontFamily=Lucida Console;fontSize=30;" vertex="1" parent="1">
          <mxGeometry x="285" y="125" width="60" height="30" as="geometry" />
        </mxCell>
      </root>
    </mxGraphModel>
  </diagram>
</mxfile>
